<svg xmlns="http://www.w3.org/2000/svg" width="132" height="44" viewBox="0 0 132 44">
    <g fill="none" fill-rule="evenodd">
        <path stroke="#388DFE" stroke-width="3" d="M92.533 11.055c-3.078.655-3.67-10.184-6.854-9.508-3.184.677-5.047 10.45-8.026 11.084-2.979.633-3.064 2.409-6.115 3.057-3.05.649-2.964-2.709-6.048-2.053-3.084.655-2.017-3.98-5.226-3.297-3.21.682-3.348.965-6.557 1.647-3.21.682-3.29-4.951-6.247-4.323-2.957.629-3.489 4.878-6.572 5.534-3.084.655-2.893 3.055-6.04 3.724-3.146.669-3.6-4.175-6.683-3.52l-6.832 1.452"/>
        <text font-family="Roboto-Bold, Roboto" font-size="26" font-weight="bold" transform="translate(0 -2)">
            <tspan x="0" y="44.643" fill="#000">All</tspan> <tspan x="31.281" y="44.643" fill="#388DFE">Coin</tspan> <tspan x="84.449" y="44.643" fill="#000">Stat</tspan>
        </text>
    </g>
</svg>
